<svg xmlns="http://www.w3.org/2000/svg" width="16" height="16" fill="none"><g fill="#53555F" clip-path="url(#a)"><path fill-rule="evenodd" d="M8 1.167a6.833 6.833 0 1 0 0 13.666A6.833 6.833 0 0 0 8 1.166ZM.167 8a7.833 7.833 0 1 1 15.666 0A7.833 7.833 0 0 1 .167 8Z" clip-rule="evenodd"/><path fill-rule="evenodd" d="M8.5 6.833v5h-1v-5h1Z" clip-rule="evenodd"/><path d="M8 5.333A.667.667 0 1 0 8 4a.667.667 0 0 0 0 1.333Z"/></g><defs><clipPath id="a"><path fill="#fff" d="M0 0h16v16H0z"/></clipPath></defs></svg>